<?xml version="1.0" encoding="UTF-8" standalone="no"?>
<!DOCTYPE svg PUBLIC "-//W3C//DTD SVG 1.1//EN"
 "http://www.w3.org/Graphics/SVG/1.1/DTD/svg11.dtd">
<!-- Generated by graphviz version 2.47.3 (20210619.1520)
 -->
<!-- Title: dependencies Pages: 1 -->
<svg width="2436pt" height="247pt"
 viewBox="0.00 0.00 2436.00 246.80" xmlns="http://www.w3.org/2000/svg" xmlns:xlink="http://www.w3.org/1999/xlink">
<g id="graph0" class="graph" transform="scale(1 1) rotate(0) translate(4 242.8)">
<title>dependencies</title>
<polygon fill="white" stroke="transparent" points="-4,4 -4,-242.8 2432,-242.8 2432,4 -4,4"/>
<text text-anchor="middle" x="1214" y="-8.2" font-family="sans-serif" font-size="14.00">dependencies</text>
<g id="clust1" class="cluster">
<title>cluster_AppModule</title>
<polygon fill="none" stroke="black" stroke-dasharray="1,5" points="8,-32.8 8,-230.8 2420,-230.8 2420,-32.8 8,-32.8"/>
</g>
<g id="clust20" class="cluster">
<title>cluster_AppModule_bootstrap</title>
<polygon fill="none" stroke="black" points="1235,-170.8 1235,-222.8 1359,-222.8 1359,-170.8 1235,-170.8"/>
</g>
<g id="clust19" class="cluster">
<title>cluster_AppModule_exports</title>
<polygon fill="none" stroke="black" points="1089,-170.8 1089,-222.8 1227,-222.8 1227,-170.8 1089,-170.8"/>
</g>
<g id="clust21" class="cluster">
<title>cluster_AppModule_providers</title>
<polygon fill="none" stroke="black" points="2274,-40.8 2274,-92.8 2412,-92.8 2412,-40.8 2274,-40.8"/>
</g>
<g id="clust18" class="cluster">
<title>cluster_AppModule_imports</title>
<polygon fill="none" stroke="black" points="2122,-40.8 2122,-92.8 2266,-92.8 2266,-40.8 2122,-40.8"/>
</g>
<g id="clust2" class="cluster">
<title>cluster_AppModule_declarations</title>
<polygon fill="none" stroke="black" points="16,-40.8 16,-92.8 2114,-92.8 2114,-40.8 16,-40.8"/>
</g>
<!-- AboutComponent -->
<g id="node1" class="node">
<title>AboutComponent</title>
<polygon fill="#ffffb3" stroke="black" points="2106.33,-84.8 1989.67,-84.8 1989.67,-48.8 2106.33,-48.8 2106.33,-84.8"/>
<text text-anchor="middle" x="2048" y="-62.6" font-family="Times,serif" font-size="14.00">AboutComponent</text>
</g>
<!-- AppModule -->
<g id="node16" class="node">
<title>AppModule</title>
<polygon fill="#8dd3c7" stroke="black" points="1268.66,-149.8 1265.66,-153.8 1244.66,-153.8 1241.66,-149.8 1185.34,-149.8 1185.34,-113.8 1268.66,-113.8 1268.66,-149.8"/>
<text text-anchor="middle" x="1227" y="-127.6" font-family="Times,serif" font-size="14.00">AppModule</text>
</g>
<!-- AboutComponent&#45;&gt;AppModule -->
<g id="edge1" class="edge">
<title>AboutComponent&#45;&gt;AppModule</title>
<path fill="none" stroke="black" d="M2048,-85.08C2048,-106.12 2048,-137.8 2048,-137.8 2048,-137.8 1278.84,-137.8 1278.84,-137.8"/>
<polygon fill="black" stroke="black" points="1278.84,-134.3 1268.84,-137.8 1278.84,-141.3 1278.84,-134.3"/>
</g>
<!-- AppComponent -->
<g id="node2" class="node">
<title>AppComponent</title>
<polygon fill="#ffffb3" stroke="black" points="1971.94,-84.8 1866.06,-84.8 1866.06,-48.8 1971.94,-48.8 1971.94,-84.8"/>
<text text-anchor="middle" x="1919" y="-62.6" font-family="Times,serif" font-size="14.00">AppComponent</text>
</g>
<!-- AppComponent&#45;&gt;AppModule -->
<g id="edge2" class="edge">
<title>AppComponent&#45;&gt;AppModule</title>
<path fill="none" stroke="black" d="M1919,-85.11C1919,-104.95 1919,-133.8 1919,-133.8 1919,-133.8 1278.73,-133.8 1278.73,-133.8"/>
<polygon fill="black" stroke="black" points="1278.73,-130.3 1268.73,-133.8 1278.73,-137.3 1278.73,-130.3"/>
</g>
<!-- CityComponent -->
<g id="node3" class="node">
<title>CityComponent</title>
<polygon fill="#ffffb3" stroke="black" points="1848.95,-84.8 1743.05,-84.8 1743.05,-48.8 1848.95,-48.8 1848.95,-84.8"/>
<text text-anchor="middle" x="1796" y="-62.6" font-family="Times,serif" font-size="14.00">CityComponent</text>
</g>
<!-- CityComponent&#45;&gt;AppModule -->
<g id="edge3" class="edge">
<title>CityComponent&#45;&gt;AppModule</title>
<path fill="none" stroke="black" d="M1796,-85.02C1796,-103.63 1796,-129.8 1796,-129.8 1796,-129.8 1278.84,-129.8 1278.84,-129.8"/>
<polygon fill="black" stroke="black" points="1278.84,-126.3 1268.84,-129.8 1278.84,-133.3 1278.84,-126.3"/>
</g>
<!-- CityDetailComponent -->
<g id="node4" class="node">
<title>CityDetailComponent</title>
<polygon fill="#ffffb3" stroke="black" points="1724.66,-84.8 1585.34,-84.8 1585.34,-48.8 1724.66,-48.8 1724.66,-84.8"/>
<text text-anchor="middle" x="1655" y="-62.6" font-family="Times,serif" font-size="14.00">CityDetailComponent</text>
</g>
<!-- CityDetailComponent&#45;&gt;AppModule -->
<g id="edge4" class="edge">
<title>CityDetailComponent&#45;&gt;AppModule</title>
<path fill="none" stroke="black" d="M1655,-84.82C1655,-102.17 1655,-125.8 1655,-125.8 1655,-125.8 1278.82,-125.8 1278.82,-125.8"/>
<polygon fill="black" stroke="black" points="1278.82,-122.3 1268.82,-125.8 1278.82,-129.3 1278.82,-122.3"/>
</g>
<!-- CityDetailPlaceComponent -->
<g id="node5" class="node">
<title>CityDetailPlaceComponent</title>
<polygon fill="#ffffb3" stroke="black" points="1566.97,-84.8 1397.03,-84.8 1397.03,-48.8 1566.97,-48.8 1566.97,-84.8"/>
<text text-anchor="middle" x="1482" y="-62.6" font-family="Times,serif" font-size="14.00">CityDetailPlaceComponent</text>
</g>
<!-- CityDetailPlaceComponent&#45;&gt;AppModule -->
<g id="edge5" class="edge">
<title>CityDetailPlaceComponent&#45;&gt;AppModule</title>
<path fill="none" stroke="black" d="M1482,-84.81C1482,-100.85 1482,-121.8 1482,-121.8 1482,-121.8 1278.82,-121.8 1278.82,-121.8"/>
<polygon fill="black" stroke="black" points="1278.82,-118.3 1268.82,-121.8 1278.82,-125.3 1278.82,-118.3"/>
</g>
<!-- FilterPipe -->
<g id="node6" class="node">
<title>FilterPipe</title>
<polygon fill="#ffffb3" stroke="black" points="1378.72,-84.8 1307.28,-84.8 1307.28,-48.8 1378.72,-48.8 1378.72,-84.8"/>
<text text-anchor="middle" x="1343" y="-62.6" font-family="Times,serif" font-size="14.00">FilterPipe</text>
</g>
<!-- FilterPipe&#45;&gt;AppModule -->
<g id="edge6" class="edge">
<title>FilterPipe&#45;&gt;AppModule</title>
<path fill="none" stroke="black" d="M1329.43,-84.92C1329.43,-99.58 1329.43,-117.8 1329.43,-117.8 1329.43,-117.8 1278.66,-117.8 1278.66,-117.8"/>
<polygon fill="black" stroke="black" points="1278.66,-114.3 1268.66,-117.8 1278.66,-121.3 1278.66,-114.3"/>
</g>
<!-- Footer2Component -->
<g id="node7" class="node">
<title>Footer2Component</title>
<polygon fill="#ffffb3" stroke="black" points="1289.38,-84.8 1164.62,-84.8 1164.62,-48.8 1289.38,-48.8 1289.38,-84.8"/>
<text text-anchor="middle" x="1227" y="-62.6" font-family="Times,serif" font-size="14.00">Footer2Component</text>
</g>
<!-- Footer2Component&#45;&gt;AppModule -->
<g id="edge7" class="edge">
<title>Footer2Component&#45;&gt;AppModule</title>
<path fill="none" stroke="black" d="M1227,-84.91C1227,-84.91 1227,-103.79 1227,-103.79"/>
<polygon fill="black" stroke="black" points="1223.5,-103.79 1227,-113.79 1230.5,-103.79 1223.5,-103.79"/>
</g>
<!-- Footer3Component -->
<g id="node8" class="node">
<title>Footer3Component</title>
<polygon fill="#ffffb3" stroke="black" points="1146.38,-84.8 1021.62,-84.8 1021.62,-48.8 1146.38,-48.8 1146.38,-84.8"/>
<text text-anchor="middle" x="1084" y="-62.6" font-family="Times,serif" font-size="14.00">Footer3Component</text>
</g>
<!-- Footer3Component&#45;&gt;AppModule -->
<g id="edge8" class="edge">
<title>Footer3Component&#45;&gt;AppModule</title>
<path fill="none" stroke="black" d="M1121.88,-84.92C1121.88,-99.58 1121.88,-117.8 1121.88,-117.8 1121.88,-117.8 1175.15,-117.8 1175.15,-117.8"/>
<polygon fill="black" stroke="black" points="1175.15,-121.3 1185.15,-117.8 1175.15,-114.3 1175.15,-121.3"/>
</g>
<!-- FooterComponent -->
<g id="node9" class="node">
<title>FooterComponent</title>
<polygon fill="#ffffb3" stroke="black" points="1003.88,-84.8 886.12,-84.8 886.12,-48.8 1003.88,-48.8 1003.88,-84.8"/>
<text text-anchor="middle" x="945" y="-62.6" font-family="Times,serif" font-size="14.00">FooterComponent</text>
</g>
<!-- FooterComponent&#45;&gt;AppModule -->
<g id="edge9" class="edge">
<title>FooterComponent&#45;&gt;AppModule</title>
<path fill="none" stroke="black" d="M945,-84.81C945,-100.85 945,-121.8 945,-121.8 945,-121.8 1175.09,-121.8 1175.09,-121.8"/>
<polygon fill="black" stroke="black" points="1175.09,-125.3 1185.09,-121.8 1175.09,-118.3 1175.09,-125.3"/>
</g>
<!-- NavComponent -->
<g id="node10" class="node">
<title>NavComponent</title>
<polygon fill="#ffffb3" stroke="black" points="868.15,-84.8 763.85,-84.8 763.85,-48.8 868.15,-48.8 868.15,-84.8"/>
<text text-anchor="middle" x="816" y="-62.6" font-family="Times,serif" font-size="14.00">NavComponent</text>
</g>
<!-- NavComponent&#45;&gt;AppModule -->
<g id="edge10" class="edge">
<title>NavComponent&#45;&gt;AppModule</title>
<path fill="none" stroke="black" d="M816,-84.82C816,-102.17 816,-125.8 816,-125.8 816,-125.8 1175.33,-125.8 1175.33,-125.8"/>
<polygon fill="black" stroke="black" points="1175.33,-129.3 1185.33,-125.8 1175.33,-122.3 1175.33,-129.3"/>
</g>
<!-- PersonComponent -->
<g id="node11" class="node">
<title>PersonComponent</title>
<polygon fill="#ffffb3" stroke="black" points="745.94,-84.8 626.06,-84.8 626.06,-48.8 745.94,-48.8 745.94,-84.8"/>
<text text-anchor="middle" x="686" y="-62.6" font-family="Times,serif" font-size="14.00">PersonComponent</text>
</g>
<!-- PersonComponent&#45;&gt;AppModule -->
<g id="edge11" class="edge">
<title>PersonComponent&#45;&gt;AppModule</title>
<path fill="none" stroke="black" d="M686,-85.02C686,-103.63 686,-129.8 686,-129.8 686,-129.8 1175,-129.8 1175,-129.8"/>
<polygon fill="black" stroke="black" points="1175,-133.3 1185,-129.8 1175,-126.3 1175,-133.3"/>
</g>
<!-- PersonDetailComponent -->
<g id="node12" class="node">
<title>PersonDetailComponent</title>
<polygon fill="#ffffb3" stroke="black" points="607.64,-84.8 454.36,-84.8 454.36,-48.8 607.64,-48.8 607.64,-84.8"/>
<text text-anchor="middle" x="531" y="-62.6" font-family="Times,serif" font-size="14.00">PersonDetailComponent</text>
</g>
<!-- PersonDetailComponent&#45;&gt;AppModule -->
<g id="edge12" class="edge">
<title>PersonDetailComponent&#45;&gt;AppModule</title>
<path fill="none" stroke="black" d="M531,-85.11C531,-104.95 531,-133.8 531,-133.8 531,-133.8 1175.29,-133.8 1175.29,-133.8"/>
<polygon fill="black" stroke="black" points="1175.29,-137.3 1185.29,-133.8 1175.29,-130.3 1175.29,-137.3"/>
</g>
<!-- PersonFilterPipe -->
<g id="node13" class="node">
<title>PersonFilterPipe</title>
<polygon fill="#ffffb3" stroke="black" points="436.82,-84.8 327.18,-84.8 327.18,-48.8 436.82,-48.8 436.82,-84.8"/>
<text text-anchor="middle" x="382" y="-62.6" font-family="Times,serif" font-size="14.00">PersonFilterPipe</text>
</g>
<!-- PersonFilterPipe&#45;&gt;AppModule -->
<g id="edge13" class="edge">
<title>PersonFilterPipe&#45;&gt;AppModule</title>
<path fill="none" stroke="black" d="M382,-85.08C382,-106.12 382,-137.8 382,-137.8 382,-137.8 1175.1,-137.8 1175.1,-137.8"/>
<polygon fill="black" stroke="black" points="1175.1,-141.3 1185.1,-137.8 1175.1,-134.3 1175.1,-141.3"/>
</g>
<!-- RightBannerComponent -->
<g id="node14" class="node">
<title>RightBannerComponent</title>
<polygon fill="#ffffb3" stroke="black" points="309.38,-84.8 156.62,-84.8 156.62,-48.8 309.38,-48.8 309.38,-84.8"/>
<text text-anchor="middle" x="233" y="-62.6" font-family="Times,serif" font-size="14.00">RightBannerComponent</text>
</g>
<!-- RightBannerComponent&#45;&gt;AppModule -->
<g id="edge14" class="edge">
<title>RightBannerComponent&#45;&gt;AppModule</title>
<path fill="none" stroke="black" d="M233,-84.96C233,-107.15 233,-141.8 233,-141.8 233,-141.8 1175.24,-141.8 1175.24,-141.8"/>
<polygon fill="black" stroke="black" points="1175.24,-145.3 1185.24,-141.8 1175.24,-138.3 1175.24,-145.3"/>
</g>
<!-- ValueComponent -->
<g id="node15" class="node">
<title>ValueComponent</title>
<polygon fill="#ffffb3" stroke="black" points="138.26,-84.8 23.74,-84.8 23.74,-48.8 138.26,-48.8 138.26,-84.8"/>
<text text-anchor="middle" x="81" y="-62.6" font-family="Times,serif" font-size="14.00">ValueComponent</text>
</g>
<!-- ValueComponent&#45;&gt;AppModule -->
<g id="edge15" class="edge">
<title>ValueComponent&#45;&gt;AppModule</title>
<path fill="none" stroke="black" d="M81,-85.12C81,-108.46 81,-145.8 81,-145.8 81,-145.8 1175.2,-145.8 1175.2,-145.8"/>
<polygon fill="black" stroke="black" points="1175.2,-149.3 1185.2,-145.8 1175.2,-142.3 1175.2,-149.3"/>
</g>
<!-- FooterComponent  -->
<g id="node18" class="node">
<title>FooterComponent </title>
<polygon fill="#fb8072" stroke="black" points="1218.88,-214.8 1097.12,-214.8 1097.12,-178.8 1218.88,-178.8 1218.88,-214.8"/>
<text text-anchor="middle" x="1158" y="-192.6" font-family="Times,serif" font-size="14.00">FooterComponent </text>
</g>
<!-- AppModule&#45;&gt;FooterComponent  -->
<g id="edge17" class="edge">
<title>AppModule&#45;&gt;FooterComponent </title>
<path fill="none" stroke="black" stroke-dasharray="5,2" d="M1201.93,-149.91C1201.93,-149.91 1201.93,-168.79 1201.93,-168.79"/>
<polygon fill="black" stroke="black" points="1198.43,-168.79 1201.93,-178.79 1205.43,-168.79 1198.43,-168.79"/>
</g>
<!-- AppComponent  -->
<g id="node19" class="node">
<title>AppComponent </title>
<polygon fill="#80b1d3" stroke="black" points="1351.44,-214.8 1242.56,-214.8 1242.56,-178.8 1351.44,-178.8 1351.44,-214.8"/>
<text text-anchor="middle" x="1297" y="-192.6" font-family="Times,serif" font-size="14.00">AppComponent </text>
</g>
<!-- AppModule&#45;&gt;AppComponent  -->
<g id="edge18" class="edge">
<title>AppModule&#45;&gt;AppComponent </title>
<path fill="none" stroke="black" stroke-dasharray="1,5" d="M1255.68,-149.91C1255.68,-149.91 1255.68,-168.79 1255.68,-168.79"/>
<polygon fill="black" stroke="black" points="1252.18,-168.79 1255.68,-178.79 1259.18,-168.79 1252.18,-168.79"/>
</g>
<!-- AppRoutingModule -->
<g id="node17" class="node">
<title>AppRoutingModule</title>
<polygon fill="#8dd3c7" stroke="black" points="2258.27,-84.8 2255.27,-88.8 2234.27,-88.8 2231.27,-84.8 2129.73,-84.8 2129.73,-48.8 2258.27,-48.8 2258.27,-84.8"/>
<text text-anchor="middle" x="2194" y="-62.6" font-family="Times,serif" font-size="14.00">AppRoutingModule</text>
</g>
<!-- AppRoutingModule&#45;&gt;AppModule -->
<g id="edge16" class="edge">
<title>AppRoutingModule&#45;&gt;AppModule</title>
<path fill="none" stroke="black" d="M2194,-84.96C2194,-107.15 2194,-141.8 2194,-141.8 2194,-141.8 1278.86,-141.8 1278.86,-141.8"/>
<polygon fill="black" stroke="black" points="1278.86,-138.3 1268.86,-141.8 1278.86,-145.3 1278.86,-138.3"/>
</g>
<!-- FormService -->
<g id="node20" class="node">
<title>FormService</title>
<ellipse fill="#fdb462" stroke="black" cx="2343" cy="-66.8" rx="60.83" ry="18"/>
<text text-anchor="middle" x="2343" y="-62.6" font-family="Times,serif" font-size="14.00">FormService</text>
</g>
<!-- FormService&#45;&gt;AppModule -->
<g id="edge19" class="edge">
<title>FormService&#45;&gt;AppModule</title>
<path fill="none" stroke="black" d="M2343,-85.12C2343,-108.46 2343,-145.8 2343,-145.8 2343,-145.8 1278.71,-145.8 1278.71,-145.8"/>
<polygon fill="black" stroke="black" points="1278.71,-142.3 1268.71,-145.8 1278.71,-149.3 1278.71,-142.3"/>
</g>
</g>
</svg>
